<?xml version="1.0" encoding="UTF-8" standalone="no"?>
<!-- Created with Inkscape (http://www.inkscape.org/) -->

<svg xmlns="http://www.w3.org/2000/svg" version="1.1" width="1102.072" height="291.33401">
<defs id="defs6">
  <clipPath clipPathUnits="userSpaceOnUse" id="clipPath66">
    <path d="m 4645.49,1409.03 816.73,0 0,-817.108 -816.73,0 0,817.108 z" id="path68" />
  </clipPath>
</defs>
<g id="g2" transform="matrix(0.2,0,0,-0.2,-0.623438,292.03322)">
  <path d="m 3.11719,3.49609 5510.36001,0 0,1456.67001 -5510.36001,0 0,-1456.67001 z" style="fill:#231f20;stroke:none" id="path14" />
  <path d="m 53.4375,591.93 4541.93,0 0,817.262 -4541.93,0 0,-817.262 z" style="fill:#f7911a;stroke:none" id="path16" />
  <path d="m 53.4375,54.2031 5409.02,0 0,486.531 -5409.02,0 0,-486.531 z" style="fill:#fffccc;stroke:none" id="path18" />
  <g id="g4" style="fill:#231f20;stroke:none">
    <path d="m 1026.32,167.609 c 12.65,11.34 -5.23,22.243 -8.28,33.145 -23.118,25.297 -58.884,1.309 -87.665,15.266 -10.906,13.519 9.156,19.191 7.414,30.531 5.668,7.414 -1.746,13.957 -2.617,21.371 2.18,12.211 -7.414,20.062 -6.543,32.273 4.363,1.309 5.672,8.285 10.902,6.543 13.52,-7.851 27.043,4.797 39.692,-4.363 6.976,3.926 14.828,3.926 20.937,10.469 3.05,3.488 -0.879,10.465 2.18,14.828 13.95,6.105 -3.492,12.648 -4.367,20.062 -13.082,26.168 -41.43,3.926 -60.621,13.957 -16.137,3.922 -2.18,18.317 -1.309,27.039 1.309,16.575 -14.391,37.946 2.617,51.465 24.422,10.032 52.77,-4.363 77.63,7.414 l 9.16,18.317 -9.16,24.859 c -5.67,4.363 -14.39,5.235 -21.806,3.926 -8.722,6.543 -18.754,-0.871 -28.785,2.617 -27.476,-6.105 -54.953,-0.433 -82.863,-3.926 -16.141,-13.957 -0.875,-37.507 -6.106,-56.261 l -1.312,-52.774 c 4.363,-15.262 -0.434,-34.453 2.617,-49.719 l -1.742,-33.144 c 3.926,-30.969 -4.363,-64.551 -1.746,-97.262 -1.746,-10.465 -1.309,-22.242 0.871,-32.273 3.492,-6.977 12.215,-8.723 19.629,-10.031 10.902,3.054 23.988,-4.797 35.762,0.437 20.933,-3.926 41.433,-1.746 63.242,-2.617 10.029,2.18 22.679,3.488 32.269,7.851" id="path20" />
    <path d="m 1184.56,217.328 c -0.43,16.137 3.05,34.457 -7.42,47.977 -1.74,5.23 1.75,10.465 -3.05,14.39 -16.57,1.746 -18.75,21.809 -35.76,24.426 -6.98,13.52 -21.37,15.262 -32.28,22.242 -7.41,9.594 -16.13,18.317 -12.64,31.836 3.92,4.364 8.28,12.649 15.7,12.215 12.21,-0.437 15.7,-13.523 21.37,-21.371 9.16,-13.52 26.16,-2.18 37.94,-2.617 9.6,0.871 14.39,10.902 14.83,18.316 -3.93,6.543 2.18,15.266 -2.62,21.371 -15.7,3.926 -21.37,23.989 -38.81,24.426 -16.58,11.774 -33.59,3.051 -54.08,6.106 l -15.7,-13.086 c -3.49,-3.489 -9.16,-3.051 -9.6,-9.161 -18.31,-8.285 -12.65,-29.656 -20.5,-44.046 -0.87,-26.606 16.14,-50.594 38.82,-64.985 10.03,-15.265 30.09,-18.32 40.56,-33.582 3.92,-11.34 15.27,-25.301 5.67,-38.383 -5.67,-9.593 -17.45,-3.925 -25.3,-2.617 -6.1,6.11 -14.39,13.52 -15.7,23.117 -4.79,19.188 -23.99,6.543 -37.07,7.414 -13.52,-2.179 -6.98,-17.445 -10.47,-26.605 11.34,-13.52 14.83,-32.273 32.28,-40.996 27.04,-13.957 69.34,-17.883 93.77,3.488 18.75,3.926 17.88,25.731 20.06,40.125" id="path22" />
    <path d="m 1473.01,379.137 c 1.74,7.847 -5.24,11.773 -6.54,18.754 -2.62,7.414 -10.47,9.593 -16.58,11.773 -13.08,6.543 -15.26,-10.465 -27.04,-9.594 -9.15,10.032 -22.24,13.082 -35.33,15.266 -9.15,3.488 -17.44,-3.492 -26.16,-0.438 -13.52,-11.339 -33.15,-12.21 -37.95,-32.273 2.62,-12.211 -10.03,-20.934 -6.1,-33.148 6.1,-20.059 -0.44,-39.25 2.18,-58.442 -3.93,-11.34 1.74,-22.242 4.36,-32.711 5.24,-10.031 23.11,-14.828 17.88,-27.91 -13.52,-10.906 -23.99,-22.68 -22.68,-41 1.31,-13.082 15.7,-17.008 19.19,-27.476 -2.61,-9.594 -12.65,-13.52 -20.5,-17.879 -13.95,-10.032 -12.64,-29.223 -8.72,-44.4887 10.03,-7.8515 20.07,-19.1914 33.58,-19.625 15.27,-13.5195 37.51,-4.7969 54.96,-11.7773 19.62,3.4922 36.63,14.3945 55.39,20.0625 6.54,9.5976 11.77,18.3205 7.85,29.6605 14.83,12.644 6.1,32.711 6.54,48.847 0.43,9.594 -11.78,10.465 -15.27,19.625 -15.26,0.434 -26.6,17.446 -42.3,10.903 -13.52,5.234 -28.35,0.871 -40.56,6.105 -5.67,2.18 -13.08,7.414 -12.65,14.828 18.75,18.321 53.21,0.438 67.6,24.864 27.48,7.847 5.23,40.558 16.57,58.441 -2.61,11.773 -2.18,23.551 -0.43,35.762 1.31,7.414 -1.31,18.32 3.49,26.605 10.46,3.051 24.42,3.926 29.22,15.266 z m -79.81,-93.332 c -0.88,-7.418 -7.85,-11.778 -13.09,-15.27 -3.48,-3.488 -9.16,-0.871 -13.52,0 -5.67,3.055 -6.54,10.469 -8.29,16.141 2.18,15.699 10.47,31.836 5.68,47.972 -4.8,8.723 -3.5,19.192 -1.75,29.223 4.8,6.977 13.52,10.902 20.93,6.543 21.38,-23.988 2.19,-55.828 10.04,-84.609 z m 26.16,-150.907 c -1.31,-6.105 -1.31,-13.082 -7.41,-17.445 -17.01,-4.363 -35.76,-2.617 -51.47,5.235 -5.23,10.464 -3.92,24.421 7.86,30.093 7.85,2.614 17.88,2.18 23.98,-0.437 6.11,2.617 13.96,4.363 19.63,-1.742 4.8,-3.926 7.41,-9.598 7.41,-15.704" style="fill:#231f20;stroke:none" id="path24" />
    <path d="m 1550.91,485.117 c -10.91,17.446 -27.48,13.957 -45.36,13.52 -15.7,-6.106 -5.23,-26.168 -13.09,-38.379 1.75,-3.926 3.93,-10.469 8.73,-10.469 14.83,-1.309 30.96,-8.285 44.05,1.309 20.93,6.98 -1.75,23.113 5.67,34.019 z m 2.61,-296.574 c -11.77,10.469 -8.28,27.043 -6.1,40.559 -6.54,13.961 0.44,27.48 3.92,40.562 -3.05,23.117 -8.72,44.488 -1.74,67.164 -2.62,2.184 -3.93,5.235 -2.62,7.414 13.09,17.012 -1.31,35.766 2.62,54.082 -4.8,10.906 -14.39,16.574 -27.04,15.703 -8.29,-2.617 -18.76,0.434 -26.17,-8.289 -11.78,-23.55 7.41,-54.078 -5.67,-78.937 6.98,-33.586 2.18,-71.965 2.18,-106.418 l 0,-13.957 c 3.05,-13.52 -8.29,-34.457 9.16,-41.434 14.39,0.871 32.28,-7.851 44.49,2.617 6.1,5.231 6.97,13.082 6.97,20.934" id="path26" />
    <path d="m 1727.86,382.188 c -11.77,8.285 -15.26,24.859 -31.4,27.476 -19.62,6.106 -42.3,0.438 -58.44,-10.902 -4.36,-0.438 -5.23,4.797 -5.67,7.851 5.23,9.594 13.08,19.192 8.28,30.528 -6.97,17.445 3.06,34.457 -3.48,52.336 -13.52,8.722 -27.48,3.925 -43.62,5.671 -3.92,-2.617 -5.67,-5.671 -6.98,-10.031 0.44,-29.66 1.75,-55.39 0.88,-85.918 2.18,-10.906 -3.49,-22.679 0.87,-34.019 l -2.62,-116.887 1.75,-17.445 c 5.23,-24.86 -14.39,-55.825 10.03,-71.961 12.65,4.359 26.6,-0.875 37.5,7.851 21.81,-1.308 41.44,-13.523 61.5,-7.418 12.21,10.469 33.15,17.883 25.3,39.254 -0.88,5.668 -3.49,8.723 -0.44,13.52 2.18,18.32 -1.74,38.816 -0.87,55.828 -3.49,12.211 9.16,20.933 2.18,34.016 0.87,25.734 -7.85,58.007 5.23,80.25 z m -60.62,-49.719 c 2.18,-39.688 -2.62,-80.25 -0.44,-119.938 0.44,-7.414 -6.54,-9.597 -12.21,-12.211 -9.16,-1.746 -13.52,6.543 -18.32,11.34 -3.92,9.594 3.06,19.188 0.88,28.785 l 3.05,8.285 c -2.18,13.52 -6.11,27.477 -0.87,39.688 -3.93,15.266 2.18,31.84 -5.67,45.359 6.54,10.465 -5.24,27.914 11.77,31.403 5.24,1.308 11.34,3.488 16.57,0 6.11,-9.16 6.98,-22.246 5.24,-32.711" style="fill:#231f20;stroke:none" id="path28" />
    <path d="m 1873.45,191.16 c 2.18,4.363 -2.62,7.414 -6.54,9.16 -7.85,17.879 -29.66,6.543 -39.69,21.805 -2.18,7.414 -6.54,15.703 -0.87,21.809 -3.06,28.785 9.59,56.695 1.31,84.175 9.59,10.903 -1.75,21.368 -1.75,33.145 7.41,6.976 18.75,3.051 27.91,4.359 7.86,5.672 23.12,8.289 18.76,22.242 -8.29,4.801 0.87,14.833 -5.67,20.938 -12.21,0.871 -21.81,5.668 -34.89,6.105 -17.88,5.672 -0.44,21.809 -2.62,34.02 9.6,6.539 0.44,13.52 -0.87,20.934 -6.55,9.593 -19.19,13.082 -31.4,10.468 -6.11,-3.054 -17.89,-0.437 -22.68,-9.16 l 3.48,-45.793 -1.3,-9.16 c -1.31,-10.031 -10.03,-6.977 -18.32,-8.285 -5.67,-2.617 -5.67,-8.723 -8.72,-14.395 -2.18,-7.851 -2.18,-19.625 5.23,-25.73 2.18,0.871 3.93,-0.438 4.36,1.308 6.11,3.926 13.52,-0.437 16.57,-5.234 4.37,-32.711 -2.18,-69.781 3.06,-103.363 l -4.36,-10.469 c 4.79,-27.914 -4.8,-62.805 21.8,-81.992 19.2,-2.617 44.49,-8.727 62.81,-1.746 6.54,7.414 17.01,13.957 14.39,24.859" id="path30" />
    <path d="m 2066.37,485.117 c -10.9,17.446 -27.48,13.957 -45.35,13.52 -15.71,-6.106 -5.24,-26.168 -13.09,-38.379 1.74,-3.926 3.93,-10.469 8.72,-10.469 14.83,-1.309 30.97,-8.285 44.05,1.309 20.94,6.98 -1.74,23.113 5.67,34.019 z m 2.62,-296.574 c -11.78,10.469 -8.29,27.043 -6.11,40.559 -6.54,13.961 0.44,27.48 3.93,40.562 -3.06,23.117 -8.72,44.488 -1.75,67.164 -2.61,2.184 -3.92,5.235 -2.61,7.414 13.08,17.012 -1.31,35.766 2.61,54.082 -4.79,10.906 -14.39,16.574 -27.04,15.703 -8.29,-2.617 -18.75,0.434 -26.16,-8.289 -11.78,-23.55 7.41,-54.078 -5.68,-78.937 6.98,-33.586 2.19,-71.965 2.19,-106.418 l 0,-13.957 c 3.05,-13.52 -8.29,-34.457 9.15,-41.434 14.4,0.871 32.28,-7.851 44.49,2.617 6.11,5.231 6.98,13.082 6.98,20.934" id="path32" />
    <path d="m 2309.63,187.234 c -7.85,4.364 -2.18,13.086 -3.06,19.629 -3.48,30.09 -3.92,58.442 -2.61,88.532 2.18,8.289 -4.37,14.394 -0.44,21.808 -1.31,15.266 -6.11,34.891 5.67,47.539 4.36,12.649 -1.74,24.86 -7.41,35.766 -10.47,13.519 -30.97,15.262 -47.54,13.953 -13.96,-1.309 -22.24,-13.953 -35.77,-16.137 -6.1,1.746 -5.67,9.16 -9.59,13.52 -9.16,6.543 -23.99,4.363 -34.89,2.183 -10.47,0.434 -14.83,-13.086 -25.3,-11.339 -9.15,-7.852 -10.9,5.667 -16.57,10.031 -10.47,5.234 -20.5,-1.746 -32.28,-0.875 -5.66,-0.434 -4.36,-6.539 -6.54,-10.465 0.88,-39.688 2.18,-75.453 0.88,-116.883 -0.88,-35.328 -0.88,-70.219 -2.62,-105.984 4.8,-22.242 28.35,-9.594 42.74,-14.828 7.85,9.156 11.34,19.625 10.9,31.402 -9.59,11.34 4.8,27.91 -3.05,41.867 4.36,9.598 -1.31,22.68 0.44,31.84 -1.31,27.477 2.61,58.008 -1.75,88.098 5.23,9.597 16.14,10.906 24.86,15.265 10.03,-5.668 5.23,-21.371 7.85,-32.273 -2.62,-26.606 1.31,-53.207 -3.92,-81.121 6.1,-19.625 -4.8,-37.071 1.3,-57.571 0.87,-7.851 -5.66,-15.703 -2.18,-23.988 1.31,-19.191 20.5,-5.668 29.66,-12.211 10.03,1.309 20.5,-1.746 23.12,10.031 3.49,28.348 -6.11,59.313 -1.75,87.665 -7.41,10.031 1.75,20.496 0,30.964 0.88,22.68 -3.05,46.231 4.8,66.731 8.29,2.613 18.32,18.754 25.73,4.359 6.11,-25.297 0,-51.465 -1.31,-75.453 4.36,-37.504 0.88,-74.141 -0.43,-112.957 3.48,-4.797 5.67,-11.777 12.64,-12.648 9.6,4.363 20.5,-2.618 30.1,1.308 10.47,1.309 15.7,13.52 18.32,22.242" id="path34" />
    <path d="m 2550.72,187.234 c -7.85,4.364 -2.18,13.086 -3.05,19.629 -3.49,30.09 -3.93,58.442 -2.62,88.532 2.18,8.289 -4.36,14.394 -0.44,21.808 -1.31,15.266 -6.1,34.891 5.68,47.539 4.35,12.649 -1.75,24.86 -7.42,35.766 -10.47,13.519 -30.97,15.262 -47.54,13.953 -13.95,-1.309 -22.24,-13.953 -35.76,-16.137 -6.11,1.746 -5.67,9.16 -9.6,13.52 -9.16,6.543 -23.99,4.363 -34.89,2.183 -10.47,0.434 -14.83,-13.086 -25.29,-11.339 -9.16,-7.852 -10.91,5.667 -16.58,10.031 -10.46,5.234 -20.5,-1.746 -32.27,-0.875 -5.67,-0.434 -4.36,-6.539 -6.55,-10.465 0.88,-39.688 2.19,-75.453 0.88,-116.883 -0.88,-35.328 -0.88,-70.219 -2.62,-105.984 4.8,-22.242 28.35,-9.594 42.74,-14.828 7.86,9.156 11.34,19.625 10.91,31.402 -9.6,11.34 4.79,27.91 -3.05,41.867 4.36,9.598 -1.31,22.68 0.43,31.84 -1.31,27.477 2.62,58.008 -1.74,88.098 5.23,9.597 16.13,10.906 24.86,15.265 10.02,-5.668 5.23,-21.371 7.84,-32.273 -2.61,-26.606 1.31,-53.207 -3.92,-81.121 6.1,-19.625 -4.8,-37.071 1.31,-57.571 0.87,-7.851 -5.67,-15.703 -2.18,-23.988 1.31,-19.191 20.5,-5.668 29.65,-12.211 10.04,1.309 20.5,-1.746 23.12,10.031 3.49,28.348 -6.1,59.313 -1.74,87.665 -7.42,10.031 1.74,20.496 0,30.964 0.87,22.68 -3.06,46.231 4.79,66.731 8.29,2.613 18.32,18.754 25.74,4.359 6.1,-25.297 0,-51.465 -1.31,-75.453 4.36,-37.504 0.87,-74.141 -0.44,-112.957 3.49,-4.797 5.67,-11.777 12.65,-12.648 9.59,4.363 20.5,-2.618 30.09,1.308 10.47,1.309 15.71,13.52 18.32,22.242" id="path36" />
    <path d="m 2722.03,318.512 c -7.41,10.906 1.75,21.808 0,33.582 -10.46,15.265 1.75,41.871 -23.55,46.23 -8.28,7.852 -18.75,9.598 -27.48,15.266 -20.06,3.488 -38.37,3.055 -57.57,-3.488 -14.39,-11.34 -30.09,-22.68 -33.14,-40.997 0.87,-13.519 -6.54,-25.296 -3.93,-37.074 -3.48,-6.105 -1.31,-15.261 -1.31,-22.242 -3.92,-18.754 2.18,-40.125 0.44,-58.879 -2.61,-9.16 7.42,-14.39 0.44,-21.808 4.79,-19.188 5.23,-39.25 20.93,-53.207 11.78,-3.926 23.12,-16.137 36.2,-11.34 15.7,-6.106 32.71,-3.051 49.72,0.437 6.54,6.543 15.7,7.414 23.99,11.34 0.87,7.848 10.03,8.723 12.21,17.008 0.87,18.754 7.85,43.613 -10.91,56.699 -13.52,1.746 -24.42,4.359 -37.94,0.434 -16.57,-6.977 0,-21.805 -9.16,-33.145 -3.92,-4.797 -8.72,-12.648 -17.44,-10.902 -16.14,4.797 -18.32,20.933 -18.76,35.762 2.19,11.777 -4.79,24.425 2.62,35.765 12.21,-2.183 23.55,3.926 36.2,1.309 17.01,5.234 31.4,-3.926 48.85,0.433 17.01,7.414 7.41,24.426 9.59,38.817 z m -57.13,5.672 c -6.11,-4.364 -15.27,-5.235 -21.81,-3.055 -6.11,1.309 -14.39,-0.438 -17.44,6.543 2.18,7.414 -2.19,16.57 5.67,21.371 -7.42,4.797 1.31,10.465 1.74,16.137 5.23,10.031 17.01,3.488 24.86,3.488 10.03,-11.34 6.98,-30.094 6.98,-44.484" style="fill:#231f20;stroke:none" id="path38" />
    <path d="m 2875.86,373.902 c -1.31,14.391 -12.21,27.914 -22.24,38.817 -6.98,-0.875 -15.7,3.051 -20.06,-4.364 -12.65,0.438 -17.01,-13.082 -27.92,-16.57 -6.54,3.922 0.88,14.828 -6.97,18.317 -14.83,0.871 -30.53,2.617 -42.31,-8.286 -1.74,-33.586 0.87,-65.859 -2.61,-100.312 7.84,-23.117 -6.11,-47.539 2.61,-70.219 -4.36,-13.957 0.87,-28.785 -2.18,-44.488 2.18,-5.668 -1.74,-13.52 3.93,-17.445 17.88,-0.872 36.19,-10.032 52.77,1.308 -0.88,6.543 2.62,13.957 -1.31,20.063 6.54,11.34 -0.43,23.988 -0.43,34.89 -3.5,11.778 -4.8,29.66 2.61,40.125 -6.11,6.543 -3.93,18.758 -2.61,27.043 -2.19,4.797 -2.19,9.157 -0.44,13.52 1.74,10.902 -0.44,20.062 2.61,31.84 5.24,7.41 9.16,15.261 17.01,20.058 17.45,-2.179 34.02,6.543 47.54,15.703" id="path40" />
    <path d="m 3224.54,397.016 c 0,6.109 -3.92,13.086 -10.03,15.265 -12.21,0.871 -22.68,3.055 -34.89,0 -19.62,-12.648 -9.16,-35.324 -13.96,-53.207 -9.15,-16.14 -2.61,-39.254 -13.08,-55.39 -1.74,-0.438 -3.92,0.437 -5.23,2.179 -7.85,20.063 -2.19,40.563 -7.42,62.805 0.87,6.105 -6.54,11.34 -0.87,17.008 -6.98,6.98 -1.31,19.191 -11.77,24.863 -12.65,6.977 -26.17,1.305 -37.95,-1.309 -8.29,-10.031 -8.29,-23.988 -7.85,-37.074 -10.47,-20.933 -3.93,-49.281 -12.21,-70.652 -2.18,-5.672 -1.31,-13.52 -6.98,-14.828 -3.49,0.871 -5.67,5.23 -6.98,8.285 0.88,23.988 0.44,46.23 -4.36,68.035 8.29,16.141 -2.62,34.457 -11.78,47.543 l -38.38,3.051 -6.54,-5.668 c -0.44,-9.598 0.44,-21.371 5.67,-30.094 13.96,-62.805 21.37,-124.738 35.33,-187.976 6.54,-6.977 -0.44,-26.606 14.83,-21.805 10.46,-6.109 24.86,-0.875 37.07,1.305 4.36,2.617 9.59,6.98 9.16,12.211 -2.18,34.894 6.11,67.605 3.92,102.058 l 3.93,4.797 c 3.49,0.871 7.42,-2.18 8.72,-5.234 -0.43,-28.348 3.49,-51.465 12.21,-75.887 4.36,-12.211 -3.49,-27.477 7.42,-37.07 5.23,-1.309 8.28,-1.309 13.08,0 12.21,-6.106 27.04,-1.309 37.95,5.668 3.05,9.593 6.54,20.062 2.61,29.656 8.73,12.648 5.24,29.66 11.34,43.179 3.49,6.106 12.65,11.778 7.42,20.5 -8.72,4.797 -1.31,13.52 -2.18,20.059 1.31,21.371 9.59,40.129 10.9,62.371 6.11,7.414 3.92,19.188 3.92,29.219 2.19,5.234 6.98,10.031 6.98,16.137" id="path42" />
    <path d="m 3375.32,177.641 c -6.55,10.031 -5.68,23.55 -4.37,34.89 -8.72,15.699 -2.18,32.711 -5.23,51.028 0.44,5.234 6.11,8.722 3.49,14.394 0.87,24.422 1.74,47.102 -0.87,72.399 5.23,14.39 0,31.402 -8.29,44.046 -17.88,15.704 -44.05,24.864 -69.35,16.141 -20.06,-6.98 -38.81,-22.246 -47.1,-43.18 0,-7.851 -5.67,-21.371 3.05,-28.785 9.6,-2.179 21.37,0.438 31.84,-0.871 19.19,0.871 6.11,29.219 25.73,29.219 13.53,-6.977 11.78,-27.039 13.53,-39.688 -2.19,-10.464 -11.78,-13.082 -20.5,-15.699 -18.32,-21.371 -47.11,-26.605 -57.14,-55.39 -3.48,-13.957 -9.16,-27.477 -5.67,-43.614 -4.8,-17.883 4.8,-32.711 14.83,-46.668 11.78,-9.593 28.35,-10.468 43.62,-7.414 4.36,7.414 12.64,9.598 18.75,13.957 14.39,-15.699 34.02,-12.211 52.77,-13.086 9.16,2.184 8.29,11.778 10.91,18.321 z m -60.63,94.203 c -5.23,-20.934 12.65,-56.696 -16.57,-65.856 -3.05,-2.617 -8.29,-1.308 -12.21,0.438 -7.42,9.16 -1.75,21.804 -0.44,32.273 3.92,14.828 12.65,26.606 22.24,38.817 l 2.62,0 4.36,-5.672" id="path44" />
    <path d="m 3537.93,217.328 c -0.43,16.137 3.05,34.457 -7.41,47.977 -1.75,5.23 1.74,10.465 -3.06,14.39 -16.57,1.746 -18.75,21.809 -35.76,24.426 -6.98,13.52 -21.37,15.262 -32.27,22.242 -7.42,9.594 -16.14,18.317 -12.65,31.836 3.92,4.364 8.29,12.649 15.7,12.215 12.21,-0.437 15.7,-13.523 21.37,-21.371 9.16,-13.52 26.17,-2.18 37.95,-2.617 9.59,0.871 14.39,10.902 14.82,18.316 -3.92,6.543 2.18,15.266 -2.61,21.371 -15.71,3.926 -21.37,23.989 -38.82,24.426 -16.57,11.774 -33.58,3.051 -54.08,6.106 l -15.7,-13.086 c -3.49,-3.489 -9.16,-3.051 -9.6,-9.161 -18.31,-8.285 -12.65,-29.656 -20.49,-44.046 -0.88,-26.606 16.13,-50.594 38.81,-64.985 10.03,-15.265 30.09,-18.32 40.56,-33.582 3.93,-11.34 15.27,-25.301 5.67,-38.383 -5.67,-9.593 -17.45,-3.925 -25.29,-2.617 -6.11,6.11 -14.4,13.52 -15.71,23.117 -4.79,19.188 -23.98,6.543 -37.07,7.414 -13.52,-2.179 -6.97,-17.445 -10.46,-26.605 11.33,-13.52 14.82,-32.273 32.27,-40.996 27.04,-13.957 69.35,-17.883 93.77,3.488 18.75,3.926 17.88,25.731 20.06,40.125" id="path46" />
    <path d="m 3812.42,195.086 c -10.03,7.848 -21.8,19.191 -36.2,17.008 -14.83,-2.617 -33.58,-5.668 -48.41,2.617 -9.16,8.285 6.11,14.828 8.29,22.242 -3.05,19.192 20.06,27.043 21.81,44.488 7.84,5.668 5.23,16.137 13.08,22.68 6.1,8.723 0,21.805 10.9,28.348 2.62,19.625 16.14,36.636 29.22,51.465 2.18,13.957 -13.95,20.062 -21.36,29.218 -14.84,-2.179 -27.92,0.438 -40.57,-0.871 -22.68,3.055 -44.05,0.871 -65.86,0.438 -14.39,-2.18 -7.41,-19.192 -10.9,-28.352 6.54,-25.293 27.04,-6.976 44.49,-11.336 7.85,0.434 13.52,4.36 21.8,2.18 5.68,-1.746 3.93,-7.852 4.81,-12.215 -12.66,-14.391 -16.14,-32.273 -27.05,-47.101 -5.23,-23.989 -21.8,-44.922 -27.91,-68.911 l -4.8,-6.539 c -12.65,-17.449 -20.06,-40.562 -15.7,-62.371 8.72,-8.285 22.24,-7.847 33.15,-7.847 31.84,0.433 63.67,-3.055 93.77,0 8.72,6.105 16.57,13.082 17.44,24.859" id="path48" />
    <path d="m 3967.1,195.957 c -10.46,8.285 -5.23,22.68 -6.1,33.582 -8.29,16.574 5.23,32.711 -1.75,48.414 3.49,9.594 0.44,17.442 -3.05,25.731 11.34,16.136 -1.31,37.07 4.36,56.699 7.85,13.519 -3.92,27.472 0.44,41.867 -6.98,17.883 -30.1,6.543 -43.62,8.289 -20.49,-8.289 -6.54,-33.582 -11.34,-51.465 6.55,-24.426 -1.31,-50.156 2.62,-74.578 -6.11,-16.574 3.05,-32.277 1.31,-51.031 -3.06,-9.594 -9.59,-23.551 -21.81,-25.297 -6.11,-2.18 -10.03,3.926 -12.21,8.289 3.49,22.68 -0.87,47.539 5.23,70.652 -11.77,13.957 6.11,28.352 -2.61,43.18 -0.44,24.859 6.1,49.285 1.31,72.836 -1.31,7.848 -10.91,3.051 -15.7,6.105 -11.78,-1.308 -25.3,3.489 -33.59,-7.414 -4.36,-3.492 -1.31,-9.597 0,-13.523 -2.18,-43.613 0.44,-86.789 0.87,-131.711 l -1.74,-5.672 c 0.44,-23.988 -0.87,-48.847 5.23,-71.09 4.37,-15.699 22.68,-12.648 34.46,-15.265 16.14,-3.051 27.48,18.32 41,5.672 14.82,3.925 24.86,-12.649 40.12,-3.926 4.8,1.746 5.67,8.722 11.34,9.594 7.41,5.668 4.79,12.21 5.23,20.062" id="path50" />
    <path d="m 4219.77,191.16 c 2.17,4.363 -2.62,7.414 -6.55,9.16 -7.85,17.879 -29.66,6.543 -39.68,21.805 -2.19,7.414 -6.55,15.703 -0.88,21.809 -3.05,28.785 9.59,56.695 1.31,84.175 9.59,10.903 -1.74,21.368 -1.74,33.145 7.41,6.976 18.75,3.051 27.91,4.359 7.85,5.672 23.11,8.289 18.75,22.242 -8.28,4.801 0.88,14.833 -5.67,20.938 -12.21,0.871 -21.81,5.668 -34.89,6.105 -17.88,5.672 -0.44,21.809 -2.62,34.02 9.6,6.539 0.44,13.52 -0.87,20.934 -6.54,9.593 -19.19,13.082 -31.4,10.468 -6.11,-3.054 -17.88,-0.437 -22.68,-9.16 l 3.49,-45.793 -1.31,-9.16 c -1.31,-10.031 -10.03,-6.977 -18.32,-8.285 -5.67,-2.617 -5.67,-8.723 -8.72,-14.395 -2.18,-7.851 -2.18,-19.625 5.23,-25.73 2.18,0.871 3.93,-0.438 4.36,1.308 6.11,3.926 13.53,-0.437 16.58,-5.234 4.36,-32.711 -2.18,-69.781 3.05,-103.363 l -4.36,-10.469 c 4.8,-27.914 -4.8,-62.805 21.81,-81.992 19.19,-2.617 44.48,-8.727 62.8,-1.746 6.54,7.414 17.01,13.957 14.4,24.859" id="path52" />
    <path d="m 4369.64,195.957 c -10.47,8.285 -5.23,22.68 -6.1,33.582 -8.29,16.574 5.23,32.711 -1.75,48.414 3.49,9.594 0.44,17.442 -3.06,25.731 11.35,16.136 -1.3,37.07 4.37,56.699 7.85,13.519 -3.93,27.472 0.44,41.867 -6.99,17.883 -30.1,6.543 -43.62,8.289 -20.5,-8.289 -6.54,-33.582 -11.34,-51.465 6.54,-24.426 -1.31,-50.156 2.62,-74.578 -6.11,-16.574 3.05,-32.277 1.3,-51.031 -3.05,-9.594 -9.59,-23.551 -21.8,-25.297 -6.11,-2.18 -10.03,3.926 -12.21,8.289 3.49,22.68 -0.87,47.539 5.23,70.652 -11.77,13.957 6.11,28.352 -2.61,43.18 -0.44,24.859 6.1,49.285 1.3,72.836 -1.3,7.848 -10.9,3.051 -15.7,6.105 -11.78,-1.308 -25.29,3.489 -33.58,-7.414 -4.36,-3.492 -1.31,-9.597 0,-13.523 -2.18,-43.613 0.44,-86.789 0.87,-131.711 l -1.74,-5.672 c 0.44,-23.988 -0.87,-48.847 5.23,-71.09 4.36,-15.699 22.68,-12.648 34.46,-15.265 16.13,-3.051 27.47,18.32 40.99,5.672 14.83,3.925 24.86,-12.649 40.13,-3.926 4.79,1.746 5.66,8.722 11.34,9.594 7.41,5.668 4.79,12.21 5.23,20.062" id="path54" />
    <path d="m 4543.05,389.168 c 2.62,13.957 -15.69,5.668 -16.57,18.316 -21.37,12.211 -53.21,4.797 -72.84,-10.031 -3.48,0.438 -3.05,3.926 -3.05,6.977 -0.43,3.925 -4.36,4.8 -7.41,6.543 -13.52,-4.797 -32.71,8.722 -42.3,-4.36 -0.88,-25.297 0,-48.414 1.3,-72.836 0.87,-12.211 -3.05,-26.605 0.87,-37.07 -2.61,-28.785 -3.05,-58.879 0,-88.102 -6.1,-10.031 -5.23,-23.988 -3.05,-35.765 0,-7.41 8.29,-10.902 14.83,-10.027 11.78,6.105 22.68,-4.364 33.15,1.742 10.47,10.468 5.66,26.605 3.48,39.254 -1.74,11.339 3.93,18.754 2.62,29.218 -6.97,9.598 -0.44,23.118 -0.87,34.895 -5.67,10.902 2.18,25.73 -4.36,35.324 6.98,20.5 -6.98,46.668 12.21,61.059 7.42,-0.434 16.14,6.98 22.24,-0.434 2.18,-17.445 1.31,-36.637 3.06,-54.516 -1.75,-4.8 -3.49,-10.468 -1.75,-15.265 -4.79,-39.254 3.49,-80.25 -4.36,-119.067 1.31,-4.363 5.23,-9.593 10.04,-10.902 16.57,6.106 32.7,-10.469 47.97,3.926 1.31,11.773 3.92,23.984 1.74,37.07 -3.05,17.008 -2.62,34.891 -3.05,51.899 6.98,17.445 -1.31,35.765 3.93,52.773 -8.73,13.086 3.92,25.297 0,39.688 6.1,12.648 -0.44,26.605 2.17,39.691" id="path56" />
    <path d="m 4644.14,191.16 c 2.18,8.723 -6.54,13.52 -11.34,18.754 -12.21,18.754 -32.71,0 -47.54,6.543 -16.57,-4.363 -10.46,-28.785 -9.59,-41.871 3.05,-6.539 10.03,-9.594 16.57,-10.031 13.08,2.617 26.17,-3.926 38.82,0.437 9.15,5.668 6.54,18.754 13.08,26.168" id="path58" />
  </g>
  <path d="m 4645.49,591.922 816.734,0 0,817.109 -816.734,0 0,-817.109 z" style="fill:#c40070;stroke:none" id="path60" />
  <g id="g6" style="fill:#f7911a;stroke:none" clip-path="url(#clipPath66)">
    <path d="m 4516.08,519.168 1004.1,1004.092 56.01,-55.96 -1004.1,-1004.093 -56.01,55.961" id="path70" />
    <path d="m 4432.13,603.031 1004.1,1004.099 56.02,-55.97 -1004.1,-1004.094 -56.02,55.965" id="path72" />
    <path d="M 4348.2,686.891 5352.29,1690.99 5408.3,1635.02 4404.21,630.93 4348.2,686.891" id="path74" />
    <path d="m 4264.25,770.754 1004.1,1004.096 56.01,-55.96 -1004.09,-1004.097 -56.02,55.961" id="path76" />
    <path d="M 6204.78,29.8555 5199.72,1033.95 5255.74,1089.98 6260.79,85.8789 6204.78,29.8555" id="path78" />
    <path d="M 6120.84,-54.0938 5115.78,950 5171.8,1006.02 6176.85,1.92578 6120.84,-54.0938" id="path80" />
    <path d="M 6036.89,-138.047 5031.84,866.051 5087.85,922.074 6092.91,-82.0273 6036.89,-138.047" id="path82" />
    <path d="M 5952.95,-222 4947.89,782.098 5003.91,838.121 6008.96,-165.977 5952.95,-222" id="path84" />
  </g>
  <g id="g8" transform="matrix(5,0,0,-5,3.11719,1460.1661)">
    <path id="path122" style="fill:#ffffff;stroke:none" d="m 209.84375,58.53125 c -18.333,0 -33.1875,14.8555 -33.1875,33.1875 0,18.3326 14.8545,33.1875 33.1875,33.1875 18.332,0 33.1875,-14.8549 33.1875,-33.1875 0,-18.332 -14.8555,-33.1875 -33.1875,-33.1875 z m 319.1875,43.6875 0,24.875 c 9.108,-0.3038 18.822,1.52255 25.5,-5.15625 2.732,-3.036 3.018,-8.8032 1.5,-12.75 -5.464,-9.107 -17.286,-6.36175 -27,-6.96875 z M 644.09375,69.40625 631.625,106.75 c 8.198,0 16.983,0 25.125,0 z M 529.03125,56.375 l 0,22.4375 c 6.376,0 13.0625,0.608 17.3125,-4.25 2.428,-2.732 3.0145,-6.75625 1.8125,-10.90625 -2.22,-7.666 -11.839,-7.28125 -19.125,-7.28125 z M 313.375,56.28125 c -1.0643,0.0066 -2.15625,0.056 -3.21875,0.09375 l 0,29.125 c 7.182,-0.17 16.80875,0.07575 21.96875,-6.90625 2.732,-3.946 2.80675,-10.61425 0.21875,-14.65625 C 328.093,57.29625 320.82511,56.235148 313.375,56.28125 z m 445.3125,-27.5 c 8.54579,-0.126532 17.002,1.28675 24.34375,4.53125 l 0.0937,37.96875 c -8.5,-11.234 -22.1525,-14.30875 -35.8125,-10.96875 -8.502,2.428 -16.99525,9.71875 -20.03125,18.21875 -4.554,12.752 -2.751,28.5267 7.875,37.9375 7.892,6.679 18.5075,9.4282 29.4375,7 6.982,-1.5178 13.37125,-5.785 18.53125,-11.25 l 0,36.4375 c -19.428,8.5008 -45.85225,6.36255 -63.15625,-5.78125 -21.252,-13.9648 -29.7277,-37.62879 -25.7817,-62.218985 3.036,-22.466 23.3527,-43.410765 44.9067,-48.874765 6.24312,-1.859375 12.94702,-2.901586 19.59375,-3 z m -550,0.125 c 3.78974,-0.02896 7.65672,0.228125 11.59375,0.75 18.822,3.036 37.659,14.24425 47.375,32.15625 11.84,20.946 8.178,51.62815 -7,69.84375 -16.09,18.8218 -38.5348,25.79905 -63.125,22.15625 -18.5188,-3.036 -37.34375,-14.25375 -45.84375,-32.46875 -10.9288,-19.7328 -10.03205,-49.79825 4.84375,-67.40625 13.57577,-16.648875 31.69168,-24.874843 52.15625,-25.03125 z m -174.5,3.78125 30.375,0 0,45.21875 c 14.6298,0 30.0617,0.03125 44.9375,0.03125 0,-14.872 -0.0312,-30.086 -0.0312,-45.25 l 30.375,0 0,118.09375 -30.375,0 0,-48.3125 c -14.6032,0 -29.1234,0.0312 -44.625,0.0312 l 0,48.28125 -30.65625,0 0,-118.09375 z m 245.3125,0 54.53125,0 c 7.09,0 13.77325,3.863 19.53125,7.875 12.446,9.716 14.573,26.1155 10.625,40.6875 -2.732,10.322 -13.0635,19.429 -23.6875,21.25 l 36.75,43.0625 -0.0312,-112.875 27.9375,0 56.53125,72.71875 C 461.6875,81.88305 461.625,56.982 461.625,33 l 31.5,0 0,117.78125 -31.5,0 -56,-71.875 -0.0937,71.875 -66.25,0 c -9.714,-15.179 -19.107,-30.35225 -29.125,-45.53125 l 0,45.53125 -30.65625,0 0,-118.09375 z m 348.1875,0 33.09375,0 44.625,118.09375 -32.78125,0 -7.28125,-20.34375 -42.5,0 -8.21875,20.34375 -32.15625,0 z m 235.28125,0 30.65625,0 0,118.09375 -30.34375,0 0,-47.96875 c -14.626,0 -30.42675,0.0937 -44.96875,0.0937 0,15.4266 0.0312,31.6758 0.0312,47.875 l -30.34375,0 0,-117.84375 30.34375,0 0,45.3125 c 14.616,0 29.749,-0.03125 44.625,-0.03125 l 0,-45.53125 z m -365.46875,0.25 54.25,0 c 6.646,0 12.84775,3.09475 17.59375,8.21875 8.756,9.454 9.48675,26.73675 3.71875,37.96875 -2.126,3.642 -5.483,6.374 -9.125,8.5 8.5,1.518 19.0855,7.13505 21.4375,15.53125 3.472,12.3866 4.00925,27.521 -6.46875,38 -7.364,7.3632 -13.0955,9.5625 -28.6875,9.5625 -18.344,0 -35.12825,0.0625 -52.65625,0.0625 z" />
    <path id="path120" style="fill:#231f20;stroke:none" d="m 209.84375,58.53125 c -18.333,0 -33.1875,14.8555 -33.1875,33.1875 0,18.3326 14.8545,33.1875 33.1875,33.1875 18.332,0 33.1875,-14.8549 33.1875,-33.1875 0,-18.332 -14.8555,-33.1875 -33.1875,-33.1875 z m 0,4.125 c 16.04,0 29.0625,13.0225 29.0625,29.0625 0,16.0404 -13.0225,29.03125 -29.0625,29.03125 -16.0416,0 -29.03125,-12.99085 -29.03125,-29.03125 0,-16.04 12.98965,-29.0625 29.03125,-29.0625 z m 319.1875,39.5625 0,24.875 c 9.108,-0.3038 18.822,1.52255 25.5,-5.15625 2.732,-3.036 3.018,-8.8032 1.5,-12.75 -5.464,-9.107 -17.286,-6.36175 -27,-6.96875 z m 8.75,3.8125 c 4.81003,0.0429 9.53475,0.7365 13.40625,3.46875 2.124,2.732 2.124,7.268 0,10 -5.162,3.643 -11.84275,3.65625 -18.21875,3.65625 l 0,-17 c 1.594,-0.0758 3.20916,-0.13928 4.8125,-0.125 z M 644.09375,69.40625 631.625,106.75 c 8.198,0 16.983,0 25.125,0 L 644.09375,69.40625 z m 0,13.65625 6.65625,19.4375 -13.34375,0 6.6875,-19.4375 z m -115.0625,-26.6875 0,22.4375 c 6.376,0 13.0625,0.608 17.3125,-4.25 2.428,-2.732 3.0145,-6.75625 1.8125,-10.90625 -2.22,-7.666 -11.839,-7.28125 -19.125,-7.28125 z m 3.9375,3.9375 c 3.644,0.302 6.768,0.33625 9.5,2.15625 2.384,1.588 2.947,6.35325 1.125,8.78125 -2.732,3.036 -6.981,3.321 -10.625,3.625 l 0,-14.5625 z M 313.375,56.28125 c -1.0643,0.0066 -2.15625,0.056 -3.21875,0.09375 l 0,29.125 c 7.182,-0.17 16.80875,0.07575 21.96875,-6.90625 2.732,-3.946 2.80675,-10.61425 0.21875,-14.65625 C 328.093,57.29625 320.82511,56.235148 313.375,56.28125 z m 0.71875,4.03125 c 5.16,0.302 10.1685,0.608 13.8125,4.25 2.798,2.8 2.874,8.19125 0.75,11.53125 -3.34,4.554 -9.0985,5.16475 -14.5625,5.46875 l 0,-21.25 z M 207.875,24.5625 c -1.71805,0.02659 -3.44188,0.08588 -5.1875,0.21875 -25.1968,1.214 -49.50395,20.034 -59.21875,42.5 L 143.4375,28.75 l -38.15625,0 -0.0625,45.46875 -36.71875,0 0.03125,-45.46875 -38,0 0,125.96875 37.96875,0 0,-48.25 36.71875,0 0,48.28125 38.21875,-0.0312 0.0312,-41.9375 0.625,1.875 c 2.125,5.161 4.25395,10.3305 7.59375,15.1875 15.4828,22.161 39.4638,30.96025 65.875,28.53125 25.198,-0.911 50.68475,-20.96795 57.96875,-44.34375 l 0,40.71875 38.21875,-0.0312 0.0312,-36.40625 0.625,1.1875 c 7.59,11.8398 14.269,24.28995 23.375,35.21875 l 71.21875,0 0,-65.375 c 17,21.5548 33.517,44.4282 51.125,65.375 l 33.6875,0 c 3.57,0 46.9625,0.0312 56.3125,0.0312 21.424,0 26.61375,-5.4922 31.09375,-10.875 0,0 -3.36325,8.84935 -4.03125,10.84375 l 40.53125,0 8.15625,-20.34375 36.125,0 c 2.864,6.9766 5.4535,14.04995 7.9375,20.34375 l 40.625,0 c 0,0 -5.71275,-16.21085 -7.71875,-21.65625 l 6.96875,7.625 c 17.792,18.1726 46.163,21.6095 73.125,14.0625 1.91,0 39.6875,-0.0312 39.6875,-0.0312 l -0.0312,-48.25 36.4375,0 0,48.28125 38.25,0 0,-126.03125 -38.125,0 -0.125,45.5625 -36.4375,0 0,-45.5625 -36.4375,0.03125 -2.71875,-0.03125 c -18.364,-6.304 -44.03125,-4.8305 -61.03125,5.1875 -21.858,12.75 -34.60975,35.20965 -33.09375,60.40625 l 0.3125,2.78125 -25.4375,-68.375 -39.59375,0 -0.84375,2.15625 -31.875,81.96875 c 0,-11.536 -7.60325,-22.78975 -18.53125,-27.34375 10.016,-9.714 10.076,-27.973 3.75,-40.125 C 571.58175,34.789 563.021,28.71875 549.625,28.71875 L 496.25,28.75 l -2.125,0 -36.125,0 0.15625,64.90625 C 441.46025,72.10105 424.492,50.722 407,28.75 l -33.8125,0 0.0937,105.9375 -25.5,-29.75 c 6.982,-2.429 13.679,-8.8131 17.625,-15.1875 6.376,-11.84 6.6695,-30.9725 -0.3125,-42.8125 C 357.80775,35.7055 345.877,28.75 332.625,28.75 l -57.40625,0 0.0312,39.15625 -4.875,-10.34375 c -14.23125,-21.915 -36.72926,-33.398782 -62.5,-33 z m 550.8125,4.21875 c 8.54579,-0.126532 17.002,1.28675 24.34375,4.53125 l 0.0937,37.96875 c -8.5,-11.234 -22.1525,-14.30875 -35.8125,-10.96875 -8.502,2.428 -16.99525,9.71875 -20.03125,18.21875 -4.554,12.752 -2.751,28.5267 7.875,37.9375 7.892,6.679 18.5075,9.4282 29.4375,7 6.982,-1.5178 13.37125,-5.785 18.53125,-11.25 l 0,36.4375 c -19.428,8.5008 -45.85225,6.36255 -63.15625,-5.78125 -21.252,-13.9648 -29.72725,-37.62855 -25.78125,-62.21875 3.036,-22.466 23.35225,-43.411 44.90625,-48.875 6.24312,-1.859375 12.94702,-2.901586 19.59375,-3 z m -550,0.125 c 3.78974,-0.02896 7.65672,0.228125 11.59375,0.75 18.822,3.036 37.659,14.24425 47.375,32.15625 11.84,20.946 8.178,51.62815 -7,69.84375 -16.09,18.8218 -38.5348,25.79905 -63.125,22.15625 -18.5188,-3.036 -37.34375,-14.25375 -45.84375,-32.46875 -10.9288,-19.7328 -10.03205,-49.79825 4.84375,-67.40625 13.57577,-16.648875 31.69168,-24.874843 52.15625,-25.03125 z m -174.5,3.78125 30.375,0 0,45.21875 c 14.6298,0 30.0617,0.03125 44.9375,0.03125 0,-14.872 -0.0312,-30.086 -0.0312,-45.25 l 30.375,0 0,118.09375 -30.375,0 0,-48.3125 c -14.6032,0 -29.1234,0.0312 -44.625,0.0312 l 0,48.28125 -30.65625,0 0,-118.09375 z m 245.3125,0 54.53125,0 c 7.09,0 13.77325,3.863 19.53125,7.875 12.446,9.716 14.573,26.1155 10.625,40.6875 -2.732,10.322 -13.0635,19.429 -23.6875,21.25 l 36.75,43.0625 -0.0312,-112.875 27.9375,0 56.53125,72.71875 C 461.6875,81.88305 461.625,56.982 461.625,33 l 31.5,0 0,117.78125 -31.5,0 -56,-71.875 -0.0937,71.875 -66.25,0 c -9.714,-15.179 -19.107,-30.35225 -29.125,-45.53125 l 0,45.53125 -30.65625,0 0,-118.09375 z m 348.1875,0 33.09375,0 44.625,118.09375 -32.78125,0 -7.28125,-20.34375 -42.5,0 -8.21875,20.34375 -32.15625,0 L 627.6875,32.6875 z m 235.28125,0 30.65625,0 0,118.09375 -30.34375,0 0,-47.96875 c -14.626,0 -30.42675,0.0937 -44.96875,0.0937 0,15.4266 0.0312,31.6758 0.0312,47.875 l -30.34375,0 0,-117.84375 30.34375,0 0,45.3125 c 14.616,0 29.749,-0.03125 44.625,-0.03125 l 0,-45.53125 z m -365.46875,0.25 54.25,0 c 6.646,0 12.84775,3.09475 17.59375,8.21875 8.756,9.454 9.48675,26.73675 3.71875,37.96875 -2.126,3.642 -5.483,6.374 -9.125,8.5 8.5,1.518 19.0855,7.13505 21.4375,15.53125 3.472,12.3866 4.00925,27.521 -6.46875,38 -7.364,7.3632 -13.0955,9.5625 -28.6875,9.5625 -18.344,0 -35.12825,0.0625 -52.65625,0.0625 L 497.5,32.9375 z m 259.375,30.46875 c 3.7607,0.02361 7.50612,0.814875 10.78125,2.375 8.334,3.97 11.26925,6.36025 15.28125,13.90625 l 0,26.78125 C 770.9735,120.03435 753.679,121.929 744.875,117.375 734.553,113.4282 730.00575,102.518 729.09375,92.5 c 0.304,-10.3214 4.55875,-20.338 13.96875,-25.5 4.0995,-2.390625 8.97732,-3.624107 13.8125,-3.59375 z" />
  </g>
</g>
</svg>