<?xml version="1.0" encoding="UTF-8" standalone="no"?>
<!-- Created with Inkscape (http://www.inkscape.org/) -->
<svg
   xmlns:svg="http://www.w3.org/2000/svg"
   xmlns="http://www.w3.org/2000/svg"
   version="1.0"
   width="710"
   height="230"
   viewBox="-0.446 -0.974 710 230"
   id="svg2"
   xml:space="preserve">
	<defs
   id="defs4">
	</defs>
	<g
   id="g6">
		<polygon
   points="365.962,67.981 386.841,47.039 386.841,99.827 365.962,120.769 365.962,67.981 "
   style="fill:#c11d06"
   id="polygon8" />
		<polygon
   points="279.392,88.58 300.27,67.637 300.27,99.812 279.392,120.757 279.392,88.58 "
   style="fill:#c11d06"
   id="polygon10" />
		<polygon
   points="304.829,56.552 330.871,30.73 330.871,94.942 304.829,120.764 304.829,56.552 "
   style="fill:#c11d06"
   id="polygon12" />
		<polygon
   points="335.371,26.041 361.414,0 361.414,94.719 335.371,120.759 335.371,26.041 "
   style="fill:#c11d06"
   id="polygon14" />
		<polygon
   points="98.268,135.422 76.969,135.422 67.585,176.753 67.375,176.753 57.99,135.422 40.171,135.422 30.578,176.753 30.365,176.753 21.193,135.422 0,135.422 18.874,210.703 39.959,210.703 48.923,171.164 49.133,171.164 58.307,210.703 78.761,210.703 98.268,135.422 "
   id="polygon16" />
		<path
   d="M 100.381,210.703 L 121.257,210.703 L 121.257,155.981 L 100.381,155.981 L 100.381,210.703 L 100.381,210.703 z M 121.257,135.422 L 100.381,135.422 L 100.381,150.078 L 121.257,150.078 L 121.257,135.422 L 121.257,135.422 z "
   style="fill-rule:evenodd"
   id="path18" />
		<path
   d="M 146.981,177.176 C 147.931,171.27 151.516,168.003 157.737,168.003 C 163.115,168.003 166.909,172.114 166.909,177.176 L 146.981,177.176 L 146.981,177.176 z M 186.942,188.035 C 186.942,166.736 177.56,154.611 155.838,154.611 C 138.546,154.611 126.948,167.58 126.948,183.501 C 126.948,201.74 140.128,212.075 157.63,212.075 C 170.071,212.075 181.565,206.592 185.782,194.783 L 166.276,194.783 C 164.589,197.42 160.899,198.683 157.526,198.683 C 150.989,198.683 147.403,194.255 146.876,188.035 L 186.942,188.035 L 186.942,188.035 z "
   style="fill-rule:evenodd"
   id="path20" />
		<path
   d="M 192.957,210.703 L 213.836,210.703 L 213.836,181.814 C 213.836,173.064 218.58,171.269 222.164,171.269 C 228.28,171.269 229.018,175.698 229.018,182.023 L 229.018,210.703 L 249.896,210.703 L 249.896,173.169 C 249.896,160.62 240.934,154.611 231.126,154.611 C 222.797,154.611 217.209,157.459 213.309,162.939 L 213.098,162.939 L 213.098,155.981 L 192.957,155.981 L 192.957,210.703 L 192.957,210.703 z "
   id="path22" />
		<path
   d="M 275.264,177.176 C 276.211,171.27 279.797,168.003 286.018,168.003 C 291.394,168.003 295.192,172.114 295.192,177.176 L 275.264,177.176 L 275.264,177.176 z M 315.225,188.035 C 315.225,166.736 305.84,154.611 284.119,154.611 C 266.829,154.611 255.231,167.58 255.231,183.501 C 255.231,201.74 268.411,212.075 285.912,212.075 C 298.355,212.075 309.847,206.592 314.064,194.783 L 294.557,194.783 C 292.872,197.42 289.181,198.683 285.806,198.683 C 279.269,198.683 275.685,194.255 275.158,188.035 L 315.225,188.035 L 315.225,188.035 z "
   style="fill-rule:evenodd"
   id="path24" />
		<path
   d="M 320.359,210.703 L 341.235,210.703 L 341.235,189.09 C 341.235,177.385 345.665,172.537 353.888,172.537 C 358.105,172.537 358.843,172.957 360.952,173.589 L 360.952,155.139 C 359.159,154.612 358.104,154.612 355.995,154.612 C 348.404,154.612 343.976,158.196 340.602,164.735 L 340.392,164.735 L 340.392,155.982 L 320.358,155.982 L 320.358,210.703 L 320.359,210.703 z "
   id="path26" />
		<path
   d="M 404.449,183.291 C 404.449,189.826 402.761,196.893 395.276,196.893 C 387.789,196.893 386.103,189.827 386.103,183.291 C 386.103,176.857 387.789,169.795 395.276,169.795 C 402.761,169.795 404.449,176.857 404.449,183.291 L 404.449,183.291 z M 365.962,210.703 L 386.103,210.703 L 386.103,204.695 L 386.314,204.695 C 388.951,208.174 392.112,212.075 402.339,212.075 C 417.839,212.075 425.324,196.787 425.324,183.078 C 425.324,170.215 420.368,154.611 402.023,154.611 C 395.802,154.611 390.213,157.353 387.049,161.992 L 386.84,161.992 L 386.84,135.422 L 365.961,135.422 L 365.961,210.703 L 365.962,210.703 z "
   style="fill-rule:evenodd"
   id="path28" />
		<path
   d="M 449.412,177.176 C 450.359,171.27 453.945,168.003 460.166,168.003 C 465.543,168.003 469.339,172.114 469.339,177.176 L 449.412,177.176 L 449.412,177.176 z M 489.373,188.035 C 489.373,166.736 479.986,154.611 458.268,154.611 C 440.977,154.611 429.378,167.58 429.378,183.501 C 429.378,201.74 442.557,212.075 460.059,212.075 C 472.503,212.075 483.995,206.592 488.211,194.783 L 468.704,194.783 C 467.019,197.42 463.328,198.683 459.954,198.683 C 453.418,198.683 449.832,194.255 449.305,188.035 L 489.373,188.035 L 489.373,188.035 z "
   style="fill-rule:evenodd"
   id="path30" />
		<path
   d="M 494.726,210.703 L 515.603,210.703 L 515.603,189.09 C 515.603,177.385 520.032,172.537 528.254,172.537 C 532.473,172.537 533.21,172.957 535.319,173.589 L 535.319,155.139 C 533.527,154.612 532.472,154.612 530.363,154.612 C 522.773,154.612 518.343,158.196 514.97,164.735 L 514.757,164.735 L 514.757,155.982 L 494.725,155.982 L 494.725,210.703 L 494.726,210.703 z "
   id="path32" />
		<path
   d="M 559.202,180.654 C 559.202,174.855 562.156,169.795 568.061,169.795 C 574.174,169.795 577.129,174.539 577.129,180.549 C 577.129,186.665 576.283,193.201 568.588,193.201 C 561.101,193.201 559.202,186.875 559.202,180.654 L 559.202,180.654 z M 597.478,155.981 L 576.602,155.981 L 576.602,162.625 L 576.389,162.625 C 573.965,157.036 568.166,154.611 562.051,154.611 C 546.446,154.611 538.327,166.525 538.327,180.759 C 538.327,195.414 545.602,206.591 561.732,206.591 C 567.956,206.591 573.014,203.849 576.388,199.001 L 576.601,199.001 L 576.601,204.062 C 576.601,208.595 575.123,216.609 568.375,216.609 C 564.156,216.609 561.731,214.816 561.1,210.703 L 540.436,210.703 C 542.333,225.467 556.039,228.945 569.007,228.945 C 594.63,228.945 597.477,213.657 597.477,202.795 L 597.477,155.981 L 597.478,155.981 z "
   style="fill-rule:evenodd"
   id="path34" />
		<path
   d="M 622.864,177.176 C 623.813,171.27 627.397,168.003 633.616,168.003 C 638.995,168.003 642.791,172.114 642.791,177.176 L 622.864,177.176 L 622.864,177.176 z M 662.825,188.035 C 662.825,166.736 653.44,154.611 631.721,154.611 C 614.426,154.611 602.829,167.58 602.829,183.501 C 602.829,201.74 616.008,212.075 633.513,212.075 C 645.951,212.075 657.446,206.592 661.664,194.783 L 642.158,194.783 C 640.47,197.42 636.779,198.683 633.408,198.683 C 626.869,198.683 623.285,194.255 622.758,188.035 L 662.825,188.035 L 662.825,188.035 z "
   style="fill-rule:evenodd"
   id="path36" />
		<path
   d="M 668.064,210.703 L 688.94,210.703 L 688.94,189.09 C 688.94,177.385 693.37,172.537 701.592,172.537 C 705.808,172.537 706.547,172.957 708.656,173.589 L 708.656,155.139 C 706.862,154.612 705.807,154.612 703.701,154.612 C 696.107,154.612 691.681,158.196 688.307,164.735 L 688.095,164.735 L 688.095,155.982 L 668.063,155.982 L 668.063,210.703 L 668.064,210.703 z "
   id="path38" />
	</g>
</svg>